HIERARCHY
ROOT reference
{
  OFFSET 0 0 0
  CHANNELS 6 Xposition Yposition Zposition Zrotation Xrotation Yrotation
  JOINT Hips
  {
    OFFSET 370.543 87.5 183.721
    CHANNELS 3 Zrotation Xrotation Yrotation
    JOINT RightUpLeg
    {
      OFFSET -9.29072 -1.53718 -0.00769521
      CHANNELS 3 Zrotation Xrotation Yrotation
      JOINT RightLeg
      {
        OFFSET 0.000649198 -41.8926 0.0287464
        CHANNELS 3 Zrotation Xrotation Yrotation
        JOINT RightFoot
        {
          OFFSET -0.131981 -42.8927 0.241786
          CHANNELS 3 Zrotation Xrotation Yrotation
          End Site
          {
            OFFSET 0 -7.69 17.5
          }
        }
      }
    }
    JOINT LeftUpLeg
    {
      OFFSET 9.29816 -1.6623 -0.0330144
      CHANNELS 3 Zrotation Xrotation Yrotation
      JOINT LeftLeg
      {
        OFFSET 0.0555409 -41.8801 -0.0492089
        CHANNELS 3 Zrotation Xrotation Yrotation
        JOINT LeftFoot
        {
          OFFSET 0.737583 -41.1094 -0.206555
          CHANNELS 3 Zrotation Xrotation Yrotation
          End Site
          {
            OFFSET 0 -7.69 17.5
          }
        }
      }
    }
    JOINT Spine
    {
      OFFSET 0.0742767 14.2946 0.0485675
      CHANNELS 3 Zrotation Xrotation Yrotation
      JOINT Spine1
      {
        OFFSET 0.0332084 9.70841 0.0159593
        CHANNELS 3 Zrotation Xrotation Yrotation
        JOINT Spine2
        {
          OFFSET 0.0388468 10.1231 0.00288192
          CHANNELS 3 Zrotation Xrotation Yrotation
          JOINT Spine3
          {
            OFFSET 0.0300771 9.71993 0.00776905
            CHANNELS 3 Zrotation Xrotation Yrotation
            JOINT Neck
            {
              OFFSET 0.058413 10.382 0.0516165
              CHANNELS 3 Zrotation Xrotation Yrotation
              JOINT Head
              {
                OFFSET 0.0298281 9.47849 0.0268718
                CHANNELS 3 Zrotation Xrotation Yrotation
                End Site
                {
                  OFFSET 0 15.95 0
                }
              }
            }
            JOINT RightShoulder
            {
              OFFSET -3.15612 6.91385 0.0353801
              CHANNELS 3 Zrotation Xrotation Yrotation
              JOINT RightArm
              {
                OFFSET -12.7781 -0.0057607 0.0332486
                CHANNELS 3 Zrotation Xrotation Yrotation
                JOINT RightForeArm
                {
                  OFFSET -26.4999 -0.0425897 0.0409183
                  CHANNELS 3 Zrotation Xrotation Yrotation
                  JOINT RightHand
                  {
                    OFFSET -25.993 -0.0294641 0.00108206
                    CHANNELS 3 Zrotation Xrotation Yrotation
                    JOINT RightHandThumb1
                    {
                      OFFSET -2.48905 0.190105 3.12053
                      CHANNELS 3 Zrotation Xrotation Yrotation
                      JOINT RightHandThumb2
                      {
                        OFFSET -3.68274 0 0
                        CHANNELS 3 Zrotation Xrotation Yrotation
                        JOINT RightHandThumb3
                        {
                          OFFSET -2.55832 0 0
                          CHANNELS 3 Zrotation Xrotation Yrotation
                          End Site
                          {
                            OFFSET -2.194 0 0
                          }
                        }
                      }
                    }
                    JOINT RightInHandIndex
                    {
                      OFFSET -3.22368 0.508421 1.97842
                      CHANNELS 3 Zrotation Xrotation Yrotation
                      JOINT RightHandIndex1
                      {
                        OFFSET -5.21684 -0.091368 0.999158
                        CHANNELS 3 Zrotation Xrotation Yrotation
                        JOINT RightHandIndex2
                        {
                          OFFSET -3.61937 0 0
                          CHANNELS 3 Zrotation Xrotation Yrotation
                          JOINT RightHandIndex3
                          {
                            OFFSET -2.0521 0 0
                            CHANNELS 3 Zrotation Xrotation Yrotation
                            End Site
                            {
                              OFFSET -1.805 0 0
                            }
                          }
                        }
                      }
                    }
                    JOINT RightInHandMiddle
                    {
                      OFFSET -3.38211 0.517263 0.756737
                      CHANNELS 3 Zrotation Xrotation Yrotation
                      JOINT RightHandMiddle1
                      {
                        OFFSET -5.17411 -0.084 0.313895
                        CHANNELS 3 Zrotation Xrotation Yrotation
                        JOINT RightHandMiddle2
                        {
                          OFFSET -3.94947 0 0
                          CHANNELS 3 Zrotation Xrotation Yrotation
                          JOINT RightHandMiddle3
                          {
                            OFFSET -2.47579 0 0
                            CHANNELS 3 Zrotation Xrotation Yrotation
                            End Site
                            {
                              OFFSET -1.975 0 0
                            }
                          }
                        }
                      }
                    }
                    JOINT RightInHandRing
                    {
                      OFFSET -3.36516 0.537895 -0.128947
                      CHANNELS 3 Zrotation Xrotation Yrotation
                      JOINT RightHandRing1
                      {
                        OFFSET -4.63474 -0.022105 -0.478947
                        CHANNELS 3 Zrotation Xrotation Yrotation
                        JOINT RightHandRing2
                        {
                          OFFSET -3.44238 0 0
                          CHANNELS 3 Zrotation Xrotation Yrotation
                          JOINT RightHandRing3
                          {
                            OFFSET -2.3881 0 0
                            CHANNELS 3 Zrotation Xrotation Yrotation
                            End Site
                            {
                              OFFSET -1.857 0 0
                            }
                          }
                        }
                      }
                    }
                    JOINT RightInHandPinky
                    {
                      OFFSET -3.16105 0.469368 -1.20179
                      CHANNELS 3 Zrotation Xrotation Yrotation
                      JOINT RightHandPinky1
                      {
                        OFFSET -4.14105 -0.022105 -1.09053
                        CHANNELS 3 Zrotation Xrotation Yrotation
                        JOINT RightHandPinky2
                        {
                          OFFSET -2.75653 0 0
                          CHANNELS 3 Zrotation Xrotation Yrotation
                          JOINT RightHandPinky3
                          {
                            OFFSET -1.74189 0 0
                            CHANNELS 3 Zrotation Xrotation Yrotation
                            End Site
                            {
                              OFFSET -1.645 0 0
                            }
                          }
                        }
                      }
                    }
                  }
                }
              }
            }
            JOINT LeftShoulder
            {
              OFFSET 3.24463 6.9123 -0.0189685
              CHANNELS 3 Zrotation Xrotation Yrotation
              JOINT LeftArm
              {
                OFFSET 12.8793 -0.0485389 -0.0634723
                CHANNELS 3 Zrotation Xrotation Yrotation
                JOINT LeftForeArm
                {
                  OFFSET 26.4894 0.00252616 -0.136149
                  CHANNELS 3 Zrotation Xrotation Yrotation
                  JOINT LeftHand
                  {
                    OFFSET 26.005 0.0292639 -0.0166184
                    CHANNELS 3 Zrotation Xrotation Yrotation
                    JOINT LeftHandThumb1
                    {
                      OFFSET 2.48905 0.190105 3.12053
                      CHANNELS 3 Zrotation Xrotation Yrotation
                      JOINT LeftHandThumb2
                      {
                        OFFSET 3.68274 0 0
                        CHANNELS 3 Zrotation Xrotation Yrotation
                        JOINT LeftHandThumb3
                        {
                          OFFSET 2.55832 0 0
                          CHANNELS 3 Zrotation Xrotation Yrotation
                          End Site
                          {
                            OFFSET 2.194 0 0
                          }
                        }
                      }
                    }
                    JOINT LeftInHandIndex
                    {
                      OFFSET 3.22368 0.508421 1.97842
                      CHANNELS 3 Zrotation Xrotation Yrotation
                      JOINT LeftHandIndex1
                      {
                        OFFSET 5.21684 -0.091368 0.999158
                        CHANNELS 3 Zrotation Xrotation Yrotation
                        JOINT LeftHandIndex2
                        {
                          OFFSET 3.61937 0 0
                          CHANNELS 3 Zrotation Xrotation Yrotation
                          JOINT LeftHandIndex3
                          {
                            OFFSET 2.0521 0 0
                            CHANNELS 3 Zrotation Xrotation Yrotation
                            End Site
                            {
                              OFFSET 1.805 0 0
                            }
                          }
                        }
                      }
                    }
                    JOINT LeftInHandMiddle
                    {
                      OFFSET 3.38211 0.517263 0.756737
                      CHANNELS 3 Zrotation Xrotation Yrotation
                      JOINT LeftHandMiddle1
                      {
                        OFFSET 5.17411 -0.084 0.313895
                        CHANNELS 3 Zrotation Xrotation Yrotation
                        JOINT LeftHandMiddle2
                        {
                          OFFSET 3.94947 0 0
                          CHANNELS 3 Zrotation Xrotation Yrotation
                          JOINT LeftHandMiddle3
                          {
                            OFFSET 2.47579 0 0
                            CHANNELS 3 Zrotation Xrotation Yrotation
                            End Site
                            {
                              OFFSET 1.975 0 0
                            }
                          }
                        }
                      }
                    }
                    JOINT LeftInHandRing
                    {
                      OFFSET 3.36516 0.537895 -0.128947
                      CHANNELS 3 Zrotation Xrotation Yrotation
                      JOINT LeftHandRing1
                      {
                        OFFSET 4.63474 -0.022105 -0.478947
                        CHANNELS 3 Zrotation Xrotation Yrotation
                        JOINT LeftHandRing2
                        {
                          OFFSET 3.44238 0 0
                          CHANNELS 3 Zrotation Xrotation Yrotation
                          JOINT LeftHandRing3
                          {
                            OFFSET 2.3881 0 0
                            CHANNELS 3 Zrotation Xrotation Yrotation
                            End Site
                            {
                              OFFSET 1.857 0 0
                            }
                          }
                        }
                      }
                    }
                    JOINT LeftInHandPinky
                    {
                      OFFSET 3.16105 0.469368 -1.20179
                      CHANNELS 3 Zrotation Xrotation Yrotation
                      JOINT LeftHandPinky1
                      {
                        OFFSET 4.14105 -0.022105 -1.09053
                        CHANNELS 3 Zrotation Xrotation Yrotation
                        JOINT LeftHandPinky2
                        {
                          OFFSET 2.75653 0 0
                          CHANNELS 3 Zrotation Xrotation Yrotation
                          JOINT LeftHandPinky3
                          {
                            OFFSET 1.74189 0 0
                            CHANNELS 3 Zrotation Xrotation Yrotation
                            End Site
                            {
                              OFFSET 1.645 0 0
                            }
                          }
                        }
                      }
                    }
                  }
                }
              }
            }
          }
        }
      }
    }
  }
}
MOTION
Frames: 2
Frame Time: 0.00833333
9.000000000000000000e+02 0.000000000000000000e+00 0.000000000000000000e+00 0.000000000000000000e+00 0.000000000000000000e+00 0.000000000000000000e+00 5.219073322199208498e+00 -1.846207926994734683e+00 -4.103954543645993880e+01 2.049588430869403055e+01 -8.511905740674837517e+00 1.847627098460293027e+01 -1.814705651514781692e+00 -8.338705593535236660e-03 4.415935871715394256e+00 1.398879196837526484e+00 3.755157609711343714e+00 1.716006463905540258e+01 1.439717349073916353e+01 8.070927976693987205e+00 1.375560009916435611e+01 -1.549696699762087349e+01 3.212658693536162513e+00 1.550893040286956648e+01 7.051175366548016576e+00 -4.305000655219668459e+00 1.896512442223630046e+01 -2.800540869211235240e+00 -7.048813666713144244e+00 -9.930017879480509180e+00 -8.097118415179436202e-01 -1.561565447017119190e+00 -2.646630995179271473e+00 -1.292696666201407441e+00 -2.388223331486928558e+00 -4.331679465702809928e+00 -3.028440416083573172e-01 -2.515997703764248916e-01 1.721417548546971821e+00 5.880483150346140636e-03 -3.262064246987489646e+00 2.310361871045144611e+01 -5.441993974109100130e+00 2.098889419275772550e+00 1.948259996389417381e+01 9.134915729243596738e-01 6.343687275092035449e+00 -8.806442361876792191e+00 -1.423154595317028459e+01 -2.987445444759590174e+01 -2.602897521643161838e+01 1.437948837401391167e+01 1.010965690608012402e+01 4.196129387162407198e+01 -1.309994801970340461e+00 9.133688109824149581e-01 4.776807164536147177e+00 0.000000000000000000e+00 0.000000000000000000e+00 0.000000000000000000e+00 -1.578780277010493800e-15 3.281570855631134910e-16 0.000000000000000000e+00 -1.359340561435536549e-15 -1.139349609795760299e-15 0.000000000000000000e+00 2.817107602307161349e-16 -1.250142089310990845e-16 -3.482780592411385535e-16 0.000000000000000000e+00 0.000000000000000000e+00 0.000000000000000000e+00 0.000000000000000000e+00 4.366499295778024504e-16 -9.899156955146616373e-16 0.000000000000000000e+00 6.532357080775476739e-16 1.422966923892720013e-15 2.817107602307161349e-16 -1.250142089310990845e-16 -3.482780592411385535e-16 0.000000000000000000e+00 1.624723056648490664e-15 -9.852697170891334191e-16 0.000000000000000000e+00 7.151280502508418945e-16 -3.550717332251584177e-16 0.000000000000000000e+00 1.007350946533689880e-15 2.125549433159346609e-15 2.817107602307161349e-16 -1.250142089310990845e-16 -3.482780592411385535e-16 0.000000000000000000e+00 0.000000000000000000e+00 0.000000000000000000e+00 0.000000000000000000e+00 6.011762841979435394e-16 6.746102005308195671e-16 0.000000000000000000e+00 3.982529072127392910e-16 -4.788186437939286129e-16 2.817107602307161349e-16 -1.250142089310990845e-16 -3.482780592411385535e-16 0.000000000000000000e+00 0.000000000000000000e+00 0.000000000000000000e+00 0.000000000000000000e+00 1.736986204758279748e-16 -2.016892039115378036e-15 0.000000000000000000e+00 -4.358085750174512656e-16 8.119887654911418730e-17 -8.656751523294161643e-01 -4.332372191583907295e+00 -1.076523185846987474e+01 1.333981776200031533e+01 4.000538239238139226e+00 -1.625705899591645576e+01 2.674585085992037037e+01 2.281091795319867188e+01 1.183980611623034562e+01 -1.099590889574817654e+00 -1.930394924055393480e+00 -5.426460849828556476e+00 0.000000000000000000e+00 0.000000000000000000e+00 0.000000000000000000e+00 5.325111365712961853e-16 -7.521955474373632493e-16 0.000000000000000000e+00 -7.620056808439077373e-16 1.276083628875062416e-15 0.000000000000000000e+00 9.751353294820871361e-17 2.620618647372901610e-16 -3.267552159440590157e-16 0.000000000000000000e+00 0.000000000000000000e+00 0.000000000000000000e+00 0.000000000000000000e+00 1.035927698191809195e-15 -9.301461134856361912e-16 0.000000000000000000e+00 6.610238404317968114e-17 -1.380488535073223590e-15 9.751353294820871361e-17 2.620618647372901610e-16 -3.267552159440590157e-16 0.000000000000000000e+00 -1.685138677262890940e-15 8.853110660195387122e-17 0.000000000000000000e+00 -6.194103440509554430e-16 -2.029114550768309817e-15 0.000000000000000000e+00 3.407218231641207066e-16 -6.298988841972678076e-16 9.751353294820871361e-17 2.620618647372901610e-16 -3.267552159440590157e-16 0.000000000000000000e+00 0.000000000000000000e+00 0.000000000000000000e+00 0.000000000000000000e+00 -4.473219934056068100e-17 -9.156329416726984090e-16 0.000000000000000000e+00 1.762773937092531676e-16 -1.311564519052276838e-15 9.751353294820871361e-17 2.620618647372901610e-16 -3.267552159440590157e-16 0.000000000000000000e+00 0.000000000000000000e+00 0.000000000000000000e+00 0.000000000000000000e+00 4.722580132303148725e-16 -1.127064923843652105e-15 0.000000000000000000e+00 1.445510923886571052e-17 -2.107979591614801097e-15
9.000000000000000000e+02 0.000000000000000000e+00 0.000000000000000000e+00 0.000000000000000000e+00 0.000000000000000000e+00 0.000000000000000000e+00 5.327592208072208457e+00 -1.738811851477979342e+00 -4.155993201805809889e+01 2.045214050360880620e+01 -8.883666981648740801e+00 1.840130521373446015e+01 -1.802797886169976271e+00 8.289659460373195732e-02 4.406024520923224053e+00 1.573801401314440129e+00 3.504020151952842443e+00 1.711360398214836565e+01 1.455259549376887129e+01 7.859767761156770227e+00 1.385121453934659463e+01 -1.550531519276499104e+01 3.345634603092795700e+00 1.557149879576381046e+01 7.143721121176865196e+00 -4.295994781602533230e+00 1.930240036417720262e+01 -2.782747345200200506e+00 -6.938981428742385660e+00 -1.012164153353452356e+01 -8.040054141135891674e-01 -1.527742316915605469e+00 -2.692225437665102916e+00 -1.284402266623297040e+00 -2.331815222963431466e+00 -4.398112083865363786e+00 -3.077171557628020082e-01 -2.462937042766115969e-01 1.735270425819214868e+00 -1.577517570923833712e-02 -3.229991358039979055e+00 2.331294708239657254e+01 -5.524444290291388171e+00 2.100846437120250876e+00 1.960595618485005787e+01 8.964230477837362709e-01 6.308019090203202062e+00 -8.886769813908038884e+00 -1.372013418421086861e+01 -2.982488193590402048e+01 -2.634811475944012926e+01 1.456937675776518937e+01 9.984686538550073820e+00 4.167649968607551614e+01 -1.329326007143962096e+00 7.853227224032521825e-01 4.789652110110980132e+00 0.000000000000000000e+00 0.000000000000000000e+00 0.000000000000000000e+00 -1.568429035511878139e-15 3.687891958609453090e-16 0.000000000000000000e+00 -1.356117608029233047e-15 -1.144678641510636037e-15 0.000000000000000000e+00 3.298870210616464585e-16 -1.553680760081829968e-16 -3.053238772708495556e-16 0.000000000000000000e+00 0.000000000000000000e+00 0.000000000000000000e+00 0.000000000000000000e+00 4.430279953958034046e-16 -1.012697518581116438e-15 0.000000000000000000e+00 6.981004373287186390e-16 1.407871941905053316e-15 3.298870210616464585e-16 -1.553680760081829968e-16 -3.053238772708495556e-16 0.000000000000000000e+00 1.633473999231934815e-15 -9.882555492572452752e-16 0.000000000000000000e+00 7.157796259190780128e-16 -3.691498626137012520e-16 0.000000000000000000e+00 9.817096820031237210e-16 2.069060528177440656e-15 3.298870210616464585e-16 -1.553680760081829968e-16 -3.053238772708495556e-16 0.000000000000000000e+00 0.000000000000000000e+00 0.000000000000000000e+00 0.000000000000000000e+00 5.432783347441139623e-16 6.451885682604973123e-16 0.000000000000000000e+00 3.917209575630140693e-16 -4.648640810574465267e-16 3.298870210616464585e-16 -1.553680760081829968e-16 -3.053238772708495556e-16 0.000000000000000000e+00 0.000000000000000000e+00 0.000000000000000000e+00 0.000000000000000000e+00 1.694512352973758076e-16 -2.108600506086373776e-15 0.000000000000000000e+00 -4.308632047389213843e-16 2.240691040180589406e-17 -7.127169341553487580e-01 -4.369749836394184683e+00 -1.083745065586759537e+01 1.326704481649583300e+01 4.304716492077334422e+00 -1.629467206024425607e+01 2.668523622676575613e+01 2.285956953448968321e+01 1.240742096835171360e+01 -1.208190286061181506e+00 -1.933830664675048050e+00 -5.328892487745194195e+00 0.000000000000000000e+00 0.000000000000000000e+00 0.000000000000000000e+00 5.545162918974923599e-16 -7.860414310431060299e-16 0.000000000000000000e+00 -7.226644652417931421e-16 1.290421503420901329e-15 0.000000000000000000e+00 7.284763051192407199e-17 2.662242811140877791e-16 -3.295817655116085918e-16 0.000000000000000000e+00 0.000000000000000000e+00 0.000000000000000000e+00 0.000000000000000000e+00 1.017239981491914592e-15 -8.348378284132757773e-16 0.000000000000000000e+00 5.383482720079192187e-17 -1.312299642948262430e-15 7.284763051192407199e-17 2.662242811140877791e-16 -3.295817655116085918e-16 0.000000000000000000e+00 -1.704200040333806054e-15 1.689145260444296432e-16 0.000000000000000000e+00 -6.459114975397724976e-16 -1.926095270101716064e-15 0.000000000000000000e+00 2.926035857522141817e-16 -5.985765225640498758e-16 7.284763051192407199e-17 2.662242811140877791e-16 -3.295817655116085918e-16 0.000000000000000000e+00 0.000000000000000000e+00 0.000000000000000000e+00 0.000000000000000000e+00 -5.158559423026860360e-17 -8.173054376033241093e-16 0.000000000000000000e+00 1.589769317660511915e-16 -1.265348630723851461e-15 7.284763051192407199e-17 2.662242811140877791e-16 -3.295817655116085918e-16 0.000000000000000000e+00 0.000000000000000000e+00 0.000000000000000000e+00 0.000000000000000000e+00 4.380654131335708005e-16 -1.053208730498803694e-15 0.000000000000000000e+00 -1.835963576447596855e-17 -2.010618235996888104e-15
